<svg id="Layer_3" enable-background="new 0 0 64 64" height="150" viewBox="0 0 64 64" width="150" xmlns="http://www.w3.org/2000/svg"><g>
<path style="fill:none; stroke:  #000000; stroke-width: 1px;" d="m60 1h-20c-1.654 0-3 1.346-3 3v19h-33c-1.654 0-3 1.346-3 3v26c0 1.654 1.346 3 3 3h15.382l-3 6h-2.382v2h22v-2h-2.382l-3-6h15.382c1.654 0 3-1.346 3-3v-11h11c1.654 0 3-1.346 3-3v-34c0-1.654-1.346-3-3-3zm-28.618 60h-12.764l3-6h6.764zm14.618-8h-42c-.552 0-1-.448-1-1v-3h44v3c0 .552-.448 1-1 1zm1-6h-44v-21c0-.551.448-1 1-1h33v13c0 1.654 1.346 3 3 3h7zm14-9c0 .552-.448 1-1 1h-20c-.552 0-1-.448-1-1v-34c0-.551.448-1 1-1h20c.552 0 1 .449 1 1z"/>
<path style="fill:none; stroke:  #000000; stroke-width: 0px;" d="m59 4h-18c-.553 0-1 .448-1 1v29c0 .553.447 1 1 1h18c.553 0 1-.447 1-1v-29c0-.552-.447-1-1-1zm-1 29h-16v-27h16z"/>
<path style="fill:none; stroke:  #000000; stroke-width: 1px;" d="m49 36h2v2h-2z"/>
<path style="fill:none; stroke:  #000000; stroke-width: 1px;" d="m5 27h2v2h-2z"/>
<path style="fill:none; stroke:  #000000; stroke-width: 1px;" d="m9 27h26v2h-26z"/>
<path style="fill:none; stroke:  #000000; stroke-width: 1px;" d="m33 31h2v2h-2z"/>
<path style="fill:none; stroke:  #000000; stroke-width: 1px;" d="m5 31h26v2h-26z"/>
<path style="fill:none; stroke:  #000000; stroke-width: 1px;" d="m5 35h2v2h-2z"/>
<path style="fill:none; stroke:  #000000; stroke-width: 1px;" d="m9 35h26v2h-26z"/>
<path style="fill:none; stroke:  #000000; stroke-width: 1px;" d="m33 39h2v2h-2z"/>
<path style="fill:none; stroke:  #000000; stroke-width: 1px;" d="m5 39h26v2h-26z"/></g></svg>